<mxfile host="www.draw.io" modified="2019-12-01T17:05:59.914Z" agent="Mozilla/5.0 (Windows NT 10.0; Win64; x64) AppleWebKit/537.36 (KHTML, like Gecko) Chrome/78.0.3904.108 Safari/537.36" etag="JmQOgceTcTZ7NOQAclWp" version="12.3.3" type="github" pages="1">
  <diagram id="gZ7agWHSoL8UKrhHpvLS" name="Page-1">
    <mxGraphModel dx="716" dy="400" grid="1" gridSize="10" guides="1" tooltips="1" connect="1" arrows="1" fold="1" page="1" pageScale="1" pageWidth="827" pageHeight="1169" math="0" shadow="0">
      <root>
        <mxCell id="0"/>
        <mxCell id="1" parent="0"/>
        <mxCell id="xtf1Rv8BG_9pq7aAkzBv-1" value="&lt;b&gt;Game&lt;/b&gt;" style="rounded=0;whiteSpace=wrap;html=1;align=left;" parent="1" vertex="1">
          <mxGeometry x="74" y="115" width="50" height="20" as="geometry"/>
        </mxCell>
        <mxCell id="xtf1Rv8BG_9pq7aAkzBv-2" value="&lt;b&gt;Entity Manager&lt;br&gt;&lt;/b&gt;&lt;br&gt;j1Player* Player&lt;br&gt;vector&amp;lt;Entity*&amp;gt; entities&lt;br&gt;&lt;br&gt;&lt;div&gt;bool Awake(pugi::xml_node&amp;amp;)&lt;/div&gt;&lt;div&gt;&lt;span&gt;bool Start()&lt;/span&gt;&lt;br&gt;&lt;/div&gt;&lt;div&gt;&lt;span&gt;bool PreUpdate()&lt;/span&gt;&lt;br&gt;&lt;/div&gt;&lt;div&gt;&lt;span&gt;bool Update(float dt)&lt;/span&gt;&lt;br&gt;&lt;/div&gt;&lt;div&gt;&lt;span&gt;bool CleanUp()&lt;/span&gt;&lt;br&gt;&lt;/div&gt;&lt;div&gt;&lt;span&gt;bool Load(pugi::xml_node&amp;amp;)&lt;/span&gt;&lt;br&gt;&lt;/div&gt;&lt;div&gt;&lt;span&gt;bool Save(pugi::xml_node&amp;amp;) const&lt;/span&gt;&lt;br&gt;&lt;/div&gt;Entity* CreateEntity(Types type)&lt;br&gt;void DestroyEntity(Entity* type)&lt;br&gt;void RespawnCreatures()" style="rounded=0;whiteSpace=wrap;html=1;align=left;" parent="1" vertex="1">
          <mxGeometry x="194" y="40" width="217" height="230" as="geometry"/>
        </mxCell>
        <mxCell id="xtf1Rv8BG_9pq7aAkzBv-3" value="" style="endArrow=none;dashed=1;html=1;exitX=0;exitY=0.131;exitDx=0;exitDy=0;exitPerimeter=0;entryX=1;entryY=0.135;entryDx=0;entryDy=0;entryPerimeter=0;" parent="1" edge="1" target="xtf1Rv8BG_9pq7aAkzBv-2" source="xtf1Rv8BG_9pq7aAkzBv-2">
          <mxGeometry width="50" height="50" relative="1" as="geometry">
            <mxPoint x="200" y="70" as="sourcePoint"/>
            <mxPoint x="410" y="71" as="targetPoint"/>
          </mxGeometry>
        </mxCell>
        <mxCell id="xtf1Rv8BG_9pq7aAkzBv-4" value="" style="endArrow=none;dashed=1;html=1;" parent="1" edge="1">
          <mxGeometry width="50" height="50" relative="1" as="geometry">
            <mxPoint x="194" y="109.5" as="sourcePoint"/>
            <mxPoint x="411" y="110" as="targetPoint"/>
            <Array as="points">
              <mxPoint x="305" y="109.5"/>
            </Array>
          </mxGeometry>
        </mxCell>
        <mxCell id="xtf1Rv8BG_9pq7aAkzBv-5" value="" style="endArrow=classic;html=1;entryX=0;entryY=0.371;entryDx=0;entryDy=0;exitX=1;exitY=0.5;exitDx=0;exitDy=0;entryPerimeter=0;" parent="1" source="xtf1Rv8BG_9pq7aAkzBv-1" target="xtf1Rv8BG_9pq7aAkzBv-2" edge="1">
          <mxGeometry width="50" height="50" relative="1" as="geometry">
            <mxPoint x="74" y="220" as="sourcePoint"/>
            <mxPoint x="124" y="170" as="targetPoint"/>
          </mxGeometry>
        </mxCell>
        <mxCell id="xtf1Rv8BG_9pq7aAkzBv-6" value="&lt;font style=&quot;font-size: 18px&quot;&gt;1&lt;/font&gt;" style="text;html=1;resizable=0;points=[];autosize=1;align=left;verticalAlign=top;spacingTop=-4;" parent="1" vertex="1">
          <mxGeometry x="164.5" y="100" width="30" height="20" as="geometry"/>
        </mxCell>
        <mxCell id="xtf1Rv8BG_9pq7aAkzBv-7" value="&lt;b&gt;Entity&lt;br&gt;&lt;/b&gt;&lt;br&gt;SDL_Rect position&lt;br&gt;Types type&lt;br&gt;pugi::xml_node entity node" style="rounded=0;whiteSpace=wrap;html=1;align=left;" parent="1" vertex="1">
          <mxGeometry x="781.5" y="70" width="157" height="100" as="geometry"/>
        </mxCell>
        <mxCell id="xtf1Rv8BG_9pq7aAkzBv-8" value="" style="endArrow=classic;html=1;exitX=1;exitY=0.5;exitDx=0;exitDy=0;entryX=0;entryY=0.5;entryDx=0;entryDy=0;" parent="1" target="xtf1Rv8BG_9pq7aAkzBv-7" edge="1">
          <mxGeometry width="50" height="50" relative="1" as="geometry">
            <mxPoint x="411" y="119" as="sourcePoint"/>
            <mxPoint x="464" y="120" as="targetPoint"/>
          </mxGeometry>
        </mxCell>
        <mxCell id="xtf1Rv8BG_9pq7aAkzBv-10" value="" style="endArrow=none;dashed=1;html=1;exitX=0.005;exitY=0.353;exitDx=0;exitDy=0;exitPerimeter=0;entryX=0.997;entryY=0.363;entryDx=0;entryDy=0;entryPerimeter=0;" parent="1" source="xtf1Rv8BG_9pq7aAkzBv-7" target="xtf1Rv8BG_9pq7aAkzBv-7" edge="1">
          <mxGeometry width="50" height="50" relative="1" as="geometry">
            <mxPoint x="796" y="75" as="sourcePoint"/>
            <mxPoint x="993.5" y="110" as="targetPoint"/>
          </mxGeometry>
        </mxCell>
        <mxCell id="n0Lbodq0qH7Cwq5oBVWA-3" style="edgeStyle=orthogonalEdgeStyle;rounded=0;orthogonalLoop=1;jettySize=auto;html=1;exitX=0.5;exitY=0;exitDx=0;exitDy=0;entryX=0.5;entryY=1;entryDx=0;entryDy=0;endArrow=block;endFill=0;" edge="1" parent="1" source="xtf1Rv8BG_9pq7aAkzBv-12" target="xtf1Rv8BG_9pq7aAkzBv-7">
          <mxGeometry relative="1" as="geometry"/>
        </mxCell>
        <mxCell id="xtf1Rv8BG_9pq7aAkzBv-12" value="&lt;b&gt;eCreature&lt;/b&gt;&lt;br&gt;&lt;br&gt;&lt;div&gt;p2Point&amp;lt;float&amp;gt; speed&lt;/div&gt;&lt;div&gt;p2Point&amp;lt;int&amp;gt; spawn&lt;/div&gt;&lt;div&gt;bool flip&lt;/div&gt;&lt;div&gt;bool alive&lt;/div&gt;&lt;div&gt;bool respawn&lt;/div&gt;&lt;div&gt;bool isGrounded&lt;/div&gt;&lt;div&gt;&lt;span&gt;Animation idle&lt;/span&gt;&lt;br&gt;&lt;/div&gt;&lt;div&gt;Animation death&lt;/div&gt;&lt;div&gt;Animation move&lt;/div&gt;&lt;div&gt;&lt;span&gt;bool typeColDetected&lt;/span&gt;&lt;/div&gt;&lt;div&gt;Collider* allowClippingCollider&lt;/div&gt;&lt;div&gt;&lt;span&gt;Collider* collider&lt;/span&gt;&lt;/div&gt;&lt;div&gt;&lt;span&gt;int detection_range&lt;/span&gt;&lt;/div&gt;&lt;div&gt;&lt;span&gt;SDL_Texture* spritesheet&lt;/span&gt;&lt;/div&gt;&lt;div&gt;&lt;span&gt;int PathNumber&lt;/span&gt;&lt;/div&gt;&lt;br&gt;&lt;div&gt;virtual bool CleanUp()&lt;/div&gt;&lt;div&gt;virtual pugi::xml_node LoadAnimationFromTMX(pugi::xml_node* animation_node, Animation* anim, const char* name)&lt;/div&gt;&lt;div&gt;&lt;div&gt;int PathFinding(SDL_Rect objective)&lt;/div&gt;&lt;div&gt;void CreateCollider(Collider_Types type)&lt;/div&gt;&lt;/div&gt;&lt;div&gt;&lt;/div&gt;" style="rounded=0;whiteSpace=wrap;html=1;align=left;" parent="1" vertex="1">
          <mxGeometry x="665" y="210" width="390" height="330" as="geometry"/>
        </mxCell>
        <mxCell id="xtf1Rv8BG_9pq7aAkzBv-13" value="" style="endArrow=none;dashed=1;html=1;entryX=1.003;entryY=0.085;entryDx=0;entryDy=0;entryPerimeter=0;exitX=0.004;exitY=0.083;exitDx=0;exitDy=0;exitPerimeter=0;" parent="1" source="xtf1Rv8BG_9pq7aAkzBv-12" target="xtf1Rv8BG_9pq7aAkzBv-12" edge="1">
          <mxGeometry width="50" height="50" relative="1" as="geometry">
            <mxPoint x="1076.5" y="320.5" as="sourcePoint"/>
            <mxPoint x="1193.5" y="320.5" as="targetPoint"/>
          </mxGeometry>
        </mxCell>
        <mxCell id="xtf1Rv8BG_9pq7aAkzBv-14" value="" style="endArrow=none;dashed=1;html=1;entryX=1;entryY=0.75;entryDx=0;entryDy=0;exitX=0;exitY=0.75;exitDx=0;exitDy=0;" parent="1" source="xtf1Rv8BG_9pq7aAkzBv-12" target="xtf1Rv8BG_9pq7aAkzBv-12" edge="1">
          <mxGeometry width="50" height="50" relative="1" as="geometry">
            <mxPoint x="670" y="467" as="sourcePoint"/>
            <mxPoint x="1197.5" y="540.5" as="targetPoint"/>
          </mxGeometry>
        </mxCell>
        <mxCell id="xtf1Rv8BG_9pq7aAkzBv-37" style="edgeStyle=orthogonalEdgeStyle;rounded=0;orthogonalLoop=1;jettySize=auto;html=1;exitX=0.75;exitY=0;exitDx=0;exitDy=0;entryX=0.25;entryY=1;entryDx=0;entryDy=0;endArrow=block;endFill=0;" parent="1" source="xtf1Rv8BG_9pq7aAkzBv-16" target="xtf1Rv8BG_9pq7aAkzBv-12" edge="1">
          <mxGeometry relative="1" as="geometry"/>
        </mxCell>
        <mxCell id="xtf1Rv8BG_9pq7aAkzBv-16" value="&lt;b&gt;Player&lt;/b&gt;&lt;br&gt;&lt;br&gt;&lt;div&gt;Player_Info player&lt;/div&gt;&lt;div&gt;Animation jump&lt;/div&gt;&lt;div&gt;Animation idle_ladder&lt;/div&gt;&lt;div&gt;Animation slide&lt;/div&gt;&lt;div&gt;Animation movement_ladder&lt;/div&gt;&lt;div&gt;Animation down_attack&lt;/div&gt;&lt;div&gt;unsigned int death_fx&lt;/div&gt;&lt;div&gt;unsigned int jump_up_fx&lt;/div&gt;&lt;div&gt;unsigned int jump_down_fx&lt;/div&gt;&lt;div&gt;unsigned int switch_fx&lt;/div&gt;&lt;div&gt;int animation_created_mov&lt;/div&gt;&lt;div&gt;int killLimit&lt;/div&gt;&lt;div&gt;bool tangSwitchDeadCheck&lt;/div&gt;&lt;div&gt;bool canJump&lt;/div&gt;&lt;div&gt;float gravity&lt;/div&gt;&lt;div&gt;float maximum_speed&lt;/div&gt;&lt;div&gt;int difference_y&lt;/div&gt;&lt;div&gt;int inputs_out&lt;/div&gt;&lt;div&gt;state actual_state&lt;/div&gt;&lt;div&gt;inputin input_in&lt;/div&gt;&lt;div&gt;inputout input_out[MAX_INPUTS_OUT]&lt;/div&gt;&lt;br&gt;&lt;div&gt;bool Awake(pugi::xml_node&amp;amp;)&lt;/div&gt;&lt;div&gt;&lt;span&gt;bool Start()&lt;/span&gt;&lt;br&gt;&lt;/div&gt;&lt;div&gt;&lt;span&gt;bool PreUpdate()&lt;/span&gt;&lt;br&gt;&lt;/div&gt;&lt;div&gt;bool Update(float dt)&lt;/div&gt;&lt;div&gt;&lt;span&gt;bool CleanUp()&lt;/span&gt;&lt;br&gt;&lt;/div&gt;&lt;div&gt;&lt;span&gt;bool Save(pugi::xml_node&amp;amp;) const&lt;/span&gt;&lt;br&gt;&lt;/div&gt;&lt;div&gt;&lt;span&gt;bool Load(pugi::xml_node&amp;amp;)&lt;/span&gt;&lt;br&gt;&lt;/div&gt;&lt;div&gt;void Start_F3()&lt;/div&gt;&lt;div&gt;&lt;div&gt;void Change_Col_State(player_colision_state state)&lt;/div&gt;&lt;/div&gt;&lt;div&gt;&lt;div&gt;void MoveToSpawn()&lt;/div&gt;&lt;/div&gt;&lt;div&gt;&lt;div&gt;&lt;div&gt;void LoadSoundFXFromTMX(pugi::xml_node* sound_node, unsigned int&amp;amp; fx, const char* name)&lt;/div&gt;&lt;div&gt;pugi::xml_node LoadAnimationFromTMX(pugi::xml_node* animation_node, Animation* anim, const char* name)&lt;/div&gt;&lt;/div&gt;&lt;div&gt;p2Point&amp;lt;bool&amp;gt; OnCollision(Collider*, SDL_Rect, SDL_Rect*, Direction, p2Point&amp;lt;bool&amp;gt;)&lt;/div&gt;&lt;div&gt;void AfterCollision(p2Point&amp;lt;bool&amp;gt;, SDL_Rect, p2Point&amp;lt;int&amp;gt;)&lt;/div&gt;&lt;/div&gt;" style="rounded=0;whiteSpace=wrap;html=1;align=left;" parent="1" vertex="1">
          <mxGeometry x="306" y="580" width="501" height="570" as="geometry"/>
        </mxCell>
        <mxCell id="xtf1Rv8BG_9pq7aAkzBv-17" value="" style="endArrow=none;dashed=1;html=1;" parent="1" edge="1">
          <mxGeometry width="50" height="50" relative="1" as="geometry">
            <mxPoint x="306" y="610" as="sourcePoint"/>
            <mxPoint x="806" y="611" as="targetPoint"/>
          </mxGeometry>
        </mxCell>
        <mxCell id="xtf1Rv8BG_9pq7aAkzBv-18" value="" style="endArrow=none;dashed=1;html=1;exitX=0.002;exitY=0.593;exitDx=0;exitDy=0;exitPerimeter=0;entryX=1.002;entryY=0.593;entryDx=0;entryDy=0;entryPerimeter=0;" parent="1" source="xtf1Rv8BG_9pq7aAkzBv-16" target="xtf1Rv8BG_9pq7aAkzBv-16" edge="1">
          <mxGeometry width="50" height="50" relative="1" as="geometry">
            <mxPoint x="559.5" y="749.4" as="sourcePoint"/>
            <mxPoint x="636.5" y="888" as="targetPoint"/>
          </mxGeometry>
        </mxCell>
        <mxCell id="xtf1Rv8BG_9pq7aAkzBv-19" value="&lt;font style=&quot;font-size: 18px&quot;&gt;1..*&lt;/font&gt;" style="text;html=1;resizable=0;points=[];autosize=1;align=left;verticalAlign=top;spacingTop=-4;" parent="1" vertex="1">
          <mxGeometry x="820" y="180" width="40" height="20" as="geometry"/>
        </mxCell>
        <mxCell id="xtf1Rv8BG_9pq7aAkzBv-20" value="&lt;font style=&quot;font-size: 18px&quot;&gt;1&lt;/font&gt;" style="text;html=1;resizable=0;points=[];autosize=1;align=left;verticalAlign=top;spacingTop=-4;" parent="1" vertex="1">
          <mxGeometry x="665" y="550" width="30" height="20" as="geometry"/>
        </mxCell>
        <mxCell id="xtf1Rv8BG_9pq7aAkzBv-21" style="edgeStyle=orthogonalEdgeStyle;rounded=0;orthogonalLoop=1;jettySize=auto;html=1;exitX=0.5;exitY=0;exitDx=0;exitDy=0;entryX=0.25;entryY=1;entryDx=0;entryDy=0;shadow=0;endArrow=block;endFill=0;" parent="1" source="xtf1Rv8BG_9pq7aAkzBv-22" target="xtf1Rv8BG_9pq7aAkzBv-28" edge="1">
          <mxGeometry relative="1" as="geometry">
            <mxPoint x="993.5" y="872" as="targetPoint"/>
          </mxGeometry>
        </mxCell>
        <mxCell id="xtf1Rv8BG_9pq7aAkzBv-22" value="&lt;b&gt;eBatEnemy&lt;br&gt;&lt;/b&gt;&lt;br&gt;&lt;div&gt;bool Awake(pugi::xml_node&amp;amp;)&lt;/div&gt;&lt;div&gt;&lt;span&gt;bool PreUpdate()&lt;/span&gt;&lt;br&gt;&lt;/div&gt;&lt;div&gt;bool Update(float dt)&lt;/div&gt;&lt;div&gt;&lt;span&gt;bool Save(pugi::xml_node&amp;amp;) const&lt;/span&gt;&lt;/div&gt;&lt;div&gt;&lt;span&gt;bool Load(pugi::xml_node&amp;amp;)&lt;/span&gt;&lt;br&gt;&lt;/div&gt;" style="rounded=0;whiteSpace=wrap;html=1;align=left;" parent="1" vertex="1">
          <mxGeometry x="900" y="940" width="187" height="110" as="geometry"/>
        </mxCell>
        <mxCell id="xtf1Rv8BG_9pq7aAkzBv-23" style="edgeStyle=orthogonalEdgeStyle;rounded=0;orthogonalLoop=1;jettySize=auto;html=1;exitX=0.5;exitY=0;exitDx=0;exitDy=0;entryX=0.75;entryY=1;entryDx=0;entryDy=0;shadow=0;endArrow=block;endFill=0;" parent="1" source="xtf1Rv8BG_9pq7aAkzBv-24" target="xtf1Rv8BG_9pq7aAkzBv-28" edge="1">
          <mxGeometry relative="1" as="geometry">
            <mxPoint x="1191.5" y="872" as="targetPoint"/>
          </mxGeometry>
        </mxCell>
        <mxCell id="xtf1Rv8BG_9pq7aAkzBv-24" value="&lt;span&gt;&lt;b&gt;eSnakeEnemy&lt;/b&gt;&lt;/span&gt;&lt;br&gt;&lt;br&gt;&lt;div&gt;bool Awake(pugi::xml_node&amp;amp;)&lt;/div&gt;&lt;div&gt;bool PreUpdate()&lt;br&gt;&lt;/div&gt;&lt;div&gt;bool Update(float dt)&lt;/div&gt;&lt;div&gt;bool Save(pugi::xml_node&amp;amp;) const&lt;/div&gt;&lt;div&gt;bool Load(pugi::xml_node&amp;amp;)&lt;/div&gt;" style="rounded=0;whiteSpace=wrap;html=1;align=left;" parent="1" vertex="1">
          <mxGeometry x="1130" y="940" width="190" height="110" as="geometry"/>
        </mxCell>
        <mxCell id="xtf1Rv8BG_9pq7aAkzBv-25" value="&lt;font style=&quot;font-size: 18px&quot;&gt;0..*&lt;/font&gt;" style="text;html=1;resizable=0;points=[];autosize=1;align=left;verticalAlign=top;spacingTop=-4;" parent="1" vertex="1">
          <mxGeometry x="1190" y="910" width="40" height="20" as="geometry"/>
        </mxCell>
        <mxCell id="xtf1Rv8BG_9pq7aAkzBv-26" value="&lt;font style=&quot;font-size: 18px&quot;&gt;0..*&lt;/font&gt;" style="text;html=1;resizable=0;points=[];autosize=1;align=left;verticalAlign=top;spacingTop=-4;" parent="1" vertex="1">
          <mxGeometry x="960" y="910" width="40" height="20" as="geometry"/>
        </mxCell>
        <mxCell id="n0Lbodq0qH7Cwq5oBVWA-6" style="edgeStyle=orthogonalEdgeStyle;rounded=0;orthogonalLoop=1;jettySize=auto;html=1;exitX=0.5;exitY=0;exitDx=0;exitDy=0;entryX=0.75;entryY=1;entryDx=0;entryDy=0;endArrow=block;endFill=0;" edge="1" parent="1" source="xtf1Rv8BG_9pq7aAkzBv-28" target="xtf1Rv8BG_9pq7aAkzBv-12">
          <mxGeometry relative="1" as="geometry"/>
        </mxCell>
        <mxCell id="xtf1Rv8BG_9pq7aAkzBv-28" value="&lt;b&gt;eEnemy&lt;/b&gt;&lt;br&gt;&lt;br&gt;&lt;div&gt;Enemy_State en_state&lt;/div&gt;&lt;div&gt;Enemy_State en_state_update&lt;/div&gt;&lt;div&gt;bool not_chase_tang_mode&lt;/div&gt;&lt;div&gt;bool player_nearby&lt;/div&gt;&lt;span&gt;j1Timer timer_idle&lt;br&gt;&lt;/span&gt;&lt;br&gt;&lt;div&gt;void MoveAndDraw(float dt, SDL_Rect)&lt;/div&gt;&lt;div&gt;p2Point&amp;lt;bool&amp;gt; OnCollision(Collider*, SDL_Rect, SDL_Rect*, Direction, p2Point&amp;lt;bool&amp;gt;)&lt;/div&gt;&lt;div&gt;void AfterCollision(p2Point&amp;lt;bool&amp;gt;, SDL_Rect, p2Point&amp;lt;int&amp;gt;)&lt;/div&gt;&lt;div&gt;&lt;div&gt;bool Awake(pugi::xml_node&amp;amp;)&lt;/div&gt;&lt;/div&gt;&lt;div&gt;&lt;div&gt;bool CleanUp()&lt;/div&gt;&lt;/div&gt;&lt;div&gt;&lt;br&gt;&lt;/div&gt;" style="rounded=0;whiteSpace=wrap;html=1;align=left;" parent="1" vertex="1">
          <mxGeometry x="967" y="660" width="330" height="228" as="geometry"/>
        </mxCell>
        <mxCell id="xtf1Rv8BG_9pq7aAkzBv-29" value="" style="endArrow=none;dashed=1;html=1;exitX=0.006;exitY=0.125;exitDx=0;exitDy=0;exitPerimeter=0;" parent="1" source="xtf1Rv8BG_9pq7aAkzBv-28" edge="1">
          <mxGeometry width="50" height="50" relative="1" as="geometry">
            <mxPoint x="967" y="740" as="sourcePoint"/>
            <mxPoint x="1297" y="689" as="targetPoint"/>
          </mxGeometry>
        </mxCell>
        <mxCell id="xtf1Rv8BG_9pq7aAkzBv-30" value="" style="endArrow=none;dashed=1;html=1;exitX=0;exitY=0.5;exitDx=0;exitDy=0;entryX=1;entryY=0.5;entryDx=0;entryDy=0;" parent="1" source="xtf1Rv8BG_9pq7aAkzBv-28" target="xtf1Rv8BG_9pq7aAkzBv-28" edge="1">
          <mxGeometry width="50" height="50" relative="1" as="geometry">
            <mxPoint x="967" y="820" as="sourcePoint"/>
            <mxPoint x="1297" y="818" as="targetPoint"/>
          </mxGeometry>
        </mxCell>
        <mxCell id="xtf1Rv8BG_9pq7aAkzBv-31" value="&lt;font style=&quot;font-size: 18px&quot;&gt;0..*&lt;/font&gt;" style="text;html=1;resizable=0;points=[];autosize=1;align=left;verticalAlign=top;spacingTop=-4;" parent="1" vertex="1">
          <mxGeometry x="1092" y="630" width="40" height="20" as="geometry"/>
        </mxCell>
        <mxCell id="xtf1Rv8BG_9pq7aAkzBv-33" value="&lt;div&gt;int minPlayerHeight&lt;/div&gt;&lt;div&gt;bool player_not_jumping&lt;/div&gt;&lt;div&gt;bool player_stop_jumping_up&lt;/div&gt;&lt;div&gt;bool player_god_mode&lt;/div&gt;&lt;div&gt;bool player_tang_mode&lt;/div&gt;&lt;div&gt;bool player_climbing&lt;/div&gt;&lt;div&gt;bool player_in_air&lt;/div&gt;&lt;div&gt;bool spacebar_pushed&lt;/div&gt;&lt;div&gt;bool stop_slide&lt;/div&gt;&lt;div&gt;bool stop_attack&lt;/div&gt;&lt;div&gt;p2SString texture_source&lt;/div&gt;&lt;div&gt;SDL_Texture* player_spritesheet&lt;/div&gt;&lt;div&gt;player_colision_state col_state&lt;/div&gt;&lt;div&gt;&lt;span&gt;bool isSliding&lt;/span&gt;&lt;br&gt;&lt;/div&gt;" style="whiteSpace=wrap;html=1;aspect=fixed;align=left;" parent="1" vertex="1">
          <mxGeometry x="59.5" y="560" width="210" height="210" as="geometry"/>
        </mxCell>
        <mxCell id="xtf1Rv8BG_9pq7aAkzBv-39" value="&lt;font style=&quot;font-size: 18px&quot;&gt;1..*&lt;/font&gt;" style="text;html=1;resizable=0;points=[];autosize=1;align=left;verticalAlign=top;spacingTop=-4;" parent="1" vertex="1">
          <mxGeometry x="741.5" y="95" width="40" height="20" as="geometry"/>
        </mxCell>
        <mxCell id="xtf1Rv8BG_9pq7aAkzBv-40" value="" style="endArrow=none;dashed=1;html=1;exitX=0;exitY=0.25;exitDx=0;exitDy=0;entryX=1;entryY=0.25;entryDx=0;entryDy=0;" parent="1" source="xtf1Rv8BG_9pq7aAkzBv-22" target="xtf1Rv8BG_9pq7aAkzBv-22" edge="1">
          <mxGeometry width="50" height="50" relative="1" as="geometry">
            <mxPoint x="900" y="970" as="sourcePoint"/>
            <mxPoint x="1080" y="970" as="targetPoint"/>
          </mxGeometry>
        </mxCell>
        <mxCell id="xtf1Rv8BG_9pq7aAkzBv-41" value="" style="endArrow=none;dashed=1;html=1;exitX=0;exitY=0.25;exitDx=0;exitDy=0;" parent="1" edge="1">
          <mxGeometry width="50" height="50" relative="1" as="geometry">
            <mxPoint x="1130" y="970" as="sourcePoint"/>
            <mxPoint x="1320" y="970" as="targetPoint"/>
          </mxGeometry>
        </mxCell>
        <mxCell id="xtf1Rv8BG_9pq7aAkzBv-47" style="edgeStyle=orthogonalEdgeStyle;rounded=0;orthogonalLoop=1;jettySize=auto;html=1;exitX=0.5;exitY=1;exitDx=0;exitDy=0;entryX=0.5;entryY=0;entryDx=0;entryDy=0;endArrow=open;endFill=0;" parent="1" source="xtf1Rv8BG_9pq7aAkzBv-46" target="xtf1Rv8BG_9pq7aAkzBv-33" edge="1">
          <mxGeometry relative="1" as="geometry"/>
        </mxCell>
        <mxCell id="xtf1Rv8BG_9pq7aAkzBv-46" value="&lt;b&gt;&lt;font style=&quot;font-size: 14px&quot;&gt;Assumptions&lt;/font&gt;:&lt;/b&gt; All the functions that don&#39;t appear in the .cpp of the entites won&#39;t appear in this UML (because they&#39;re not important to understand the code). All the music, fx and Tiled related are not relevant to the Entities so they aren&#39;t included here. There are some enum that are listed here: ColliderTypes (with all the different types of colliders), Direction (with the four arrow directions), Enemy_State (with all the states of the enemies), Types (with all the different types of entities),&amp;nbsp;player_colision_state (with the different states of the player collision that interacts with Tiled elements),&amp;nbsp;state (with the different states of the player for the state machine),&amp;nbsp;inputin (with all the possible inputs that the player can receive),&amp;nbsp;inputout (with all the possible endings of inputs that the player can receive). The Player_Info is a struct that contains all the information in the rectangle below." style="rounded=0;whiteSpace=wrap;html=1;" parent="1" vertex="1">
          <mxGeometry x="40" y="340" width="430" height="180" as="geometry"/>
        </mxCell>
      </root>
    </mxGraphModel>
  </diagram>
</mxfile>
